#!OML:ASF H:\Punching\Project 1\Capture day 1\Session 1\female.ASF
:FULLY-SPECIFIED
:DEGREES
221
root -0.0995256 14.932 -1.86025 7.85531 -0.335849 -0.939983
lowerback 2.76384 -0.722873 0.496539
upperback -5.85786 -0.968481 -0.414887
thorax -7.68661 -0.521805 -0.621758
lowerneck -13.1524 3.82417 9.97693
upperneck 33.4382 4.19142 -3.9385
head 13.8853 2.57083 -2.66419
rclavicle -6.34869e-015 -5.1684e-015
rhumerus 31.4108 10.6786 -61.8808
rradius 65.5534
rwrist 0.431867
rhand 30.6206 -35.278
rfingers 7.12502
rthumb 54.264 -53.9359
lclavicle -6.34869e-015 -5.1684e-015
lhumerus 27.4704 -10.0877 56.5328
lradius 79.8613
lwrist -9.04017
lhand 35.7349 25.9223
lfingers 7.12502
lthumb 58.7755 40.9269
rfemur -26.3284 -5.1168 16.8825
rtibia 49.6717
rfoot -27.8369 -8.91807
rtoes -12.681
lfemur -27.5229 0.433315 -16.594
ltibia 49.9258
lfoot -25.3395 10.5156
ltoes -12.6694
222
root -0.100149 14.9337 -1.86017 7.85378 -0.334302 -0.906992
lowerback 2.76074 -0.721726 0.469803
upperback -5.88751 -0.97001 -0.432463
thorax -7.71665 -0.521725 -0.624917
lowerneck -12.8785 3.85849 9.93969
upperneck 33.2124 4.21828 -3.76133
head 13.7227 2.59975 -2.58042
rclavicle -1.64991e-014 7.95139e-015
rhumerus 31.3585 10.6889 -61.8972
rradius 65.53
rwrist 0.376483
rhand 30.4646 -35.1832
rfingers 7.12502
rthumb 54.1242 -53.9369
lclavicle -1.64991e-014 7.95139e-015
lhumerus 27.4076 -10.1139 56.5355
lradius 79.8616
lwrist -9.05953
lhand 35.6375 25.8122
lfingers 7.12502
lthumb 58.6912 40.8968
rfemur -26.3174 -5.11168 16.8458
rtibia 49.647
rfoot -27.8401 -8.90855
rtoes -12.6306
lfemur -27.5173 0.470665 -16.6339
ltibia 49.8989
lfoot -25.3104 10.4892
ltoes -12.7205
223
root -0.101337 14.9343 -1.85948 7.8462 -0.337827 -0.919553
lowerback 2.77539 -0.706874 0.492577
upperback -5.83397 -0.949361 -0.44858
thorax -7.66785 -0.513171 -0.656662
lowerneck -12.7798 3.87081 10.2564
upperneck 32.8718 4.23283 -3.99729
head 13.5691 2.60918 -2.72319
rclavicle 2.15433e-014 -5.1684e-015
rhumerus 31.4607 10.6008 -61.8937
rradius 65.5222
rwrist 0.39526
rhand 30.5322 -35.191
rfingers 7.12502
rthumb 54.1848 -53.9033
lclavicle 2.15433e-014 -5.1684e-015
lhumerus 27.6279 -10.0835 56.5123
lradius 79.8143
lwrist -9.05792
lhand 35.6763 25.8747
lfingers 7.12502
lthumb 58.7248 40.9275
rfemur -26.2914 -5.09996 16.865
rtibia 49.6207
rfoot -27.8399 -8.92279
rtoes -12.6088
lfemur -27.4968 0.521883 -16.6184
ltibia 49.8868
lfoot -25.3124 10.4448
ltoes -12.7521
224
root -0.10149 14.9353 -1.85819 7.84236 -0.329223 -0.894449
lowerback 2.75177 -0.716018 0.466023
upperback -5.83379 -0.96309 -0.442921
thorax -7.65347 -0.518153 -0.634861
lowerneck -13.0741 4.06999 9.97361
upperneck 33.0148 4.44089 -3.59403
head 13.698 2.71762 -2.47686
rclavicle -3.04389e-015 3.97569e-015
rhumerus 31.4865 10.6508 -61.8796
rradius 65.5251
rwrist 0.3597
rhand 30.4958 -35.2407
rfingers 7.12502
rthumb 54.1521 -53.9754
lclavicle -3.04389e-015 3.97569e-015
lhumerus 27.5907 -10.0429 56.5398
lradius 79.8219
lwrist -9.03892
lhand 35.6334 25.8772
lfingers 7.12502
lthumb 58.6876 40.9651
rfemur -26.2628 -5.1213 16.8362
rtibia 49.5989
rfoot -27.848 -8.91436
rtoes -12.6079
lfemur -27.4827 0.564013 -16.6473
ltibia 49.8695
lfoot -25.3218 10.3861
ltoes -12.7704
225
root -0.103287 14.9356 -1.85836 7.84136 -0.337821 -0.91911
lowerback 2.76562 -0.735244 0.455132
upperback -5.86974 -0.987098 -0.402731
thorax -7.69972 -0.52816 -0.583973
lowerneck -12.8862 4.13485 10.0129
upperneck 32.8313 4.54131 -3.58651
head 13.5868 2.76596 -2.4642
rclavicle 8.27441e-015 1.39149e-015
rhumerus 31.4855 10.7662 -61.8751
rradius 65.5391
rwrist 0.384603
rhand 30.5721 -35.1848
rfingers 7.12502
rthumb 54.2206 -53.8726
lclavicle 8.27441e-015 1.39149e-015
lhumerus 27.4684 -9.97778 56.597
lradius 79.8164
lwrist -9.05203
lhand 35.7468 25.8903
lfingers 7.12502
lthumb 58.7859 40.8849
rfemur -26.2591 -5.08763 16.8716
rtibia 49.5769
rfoot -27.8289 -8.94006
rtoes -12.5921
lfemur -27.4812 0.637308 -16.6143
ltibia 49.8611
lfoot -25.3055 10.3217
ltoes -12.7181
226
root -0.104609 14.9364 -1.85704 7.82372 -0.364119 -0.920618
lowerback 2.77144 -0.717292 0.452623
upperback -5.8628 -0.963579 -0.410081
thorax -7.69538 -0.516638 -0.592465
lowerneck -12.9206 4.24819 10.2819
upperneck 32.693 4.68147 -3.74179
head 13.5612 2.8377 -2.54757
rclavicle 1.95057e-015 3.77691e-015
rhumerus 31.4964 10.7473 -61.8756
rradius 65.5937
rwrist 0.386422
rhand 30.6234 -35.2445
rfingers 7.12502
rthumb 54.2665 -53.9007
lclavicle 1.95057e-015 3.77691e-015
lhumerus 27.4777 -9.96267 56.6208
lradius 79.8625
lwrist -8.97663
lhand 35.6536 25.8998
lfingers 7.12502
lthumb 58.7052 40.9712
rfemur -26.2246 -5.0618 16.8739
rtibia 49.5574
rfoot -27.8411 -8.92627
rtoes -12.5539
lfemur -27.4415 0.727992 -16.6115
ltibia 49.8454
lfoot -25.3286 10.2424
ltoes -12.6473
227
root -0.105275 14.9379 -1.85716 7.82894 -0.362016 -0.901513
lowerback 2.78041 -0.706288 0.444268
upperback -5.87391 -0.95045 -0.426479
thorax -7.71256 -0.510288 -0.606039
lowerneck -12.728 4.24032 10.4399
upperneck 32.4094 4.67112 -3.82657
head 13.4034 2.83834 -2.6087
rclavicle 1.39149e-014 1.03368e-014
rhumerus 31.4756 10.7227 -61.888
rradius 65.6031
rwrist 0.363584
rhand 30.5765 -35.2831
rfingers 7.12502
rthumb 54.2245 -53.9682
lclavicle 1.39149e-014 1.03368e-014
lhumerus 27.5061 -9.96999 56.6474
lradius 79.8686
lwrist -8.97211
lhand 35.6672 25.9474
lfingers 7.12502
lthumb 58.7169 41.0077
rfemur -26.2246 -5.07717 16.8569
rtibia 49.5403
rfoot -27.8327 -8.91592
rtoes -12.5595
lfemur -27.4467 0.778434 -16.6319
ltibia 49.8325
lfoot -25.2948 10.2004
ltoes -12.7168
228
root -0.106477 14.9382 -1.85678 7.81862 -0.370987 -0.896365
lowerback 2.77174 -0.698116 0.440065
upperback -5.84548 -0.940513 -0.439363
thorax -7.67683 -0.505433 -0.618407
lowerneck -12.7087 4.27192 10.509
upperneck 32.2009 4.69384 -3.81841
head 13.3143 2.85389 -2.61071
rclavicle 9.08197e-015 -1.59028e-015
rhumerus 31.5279 10.6785 -61.9041
rradius 65.6251
rwrist 0.293901
rhand 30.668 -35.3368
rfingers 7.12502
rthumb 54.3065 -53.9654
lclavicle 9.08197e-015 -1.59028e-015
lhumerus 27.5581 -9.93357 56.646
lradius 79.852
lwrist -8.99386
lhand 35.6309 25.9044
lfingers 7.12502
lthumb 58.6854 40.9944
rfemur -26.2069 -5.07732 16.8565
rtibia 49.5291
rfoot -27.8317 -8.91611
rtoes -12.5552
lfemur -27.422 0.839708 -16.6343
ltibia 49.8146
lfoot -25.3074 10.1345
ltoes -12.6668
229
root -0.107233 14.9388 -1.85633 7.80796 -0.365975 -0.910639
lowerback 2.79277 -0.696038 0.460637
upperback -5.85636 -0.936338 -0.439323
thorax -7.70117 -0.504665 -0.629962
lowerneck -12.5913 4.26205 10.5741
upperneck 32.0053 4.66422 -3.79823
head 13.2047 2.84878 -2.6172
rclavicle -1.59028e-015 3.18055e-015
rhumerus 31.5179 10.6949 -61.9067
rradius 65.6363
rwrist 0.285606
rhand 30.6284 -35.2899
rfingers 7.12502
rthumb 54.2711 -53.943
lclavicle -1.59028e-015 3.18055e-015
lhumerus 27.5479 -9.93755 56.6545
lradius 79.8545
lwrist -8.99993
lhand 35.9785 25.9047
lfingers 7.12502
lthumb 58.9863 40.7069
rfemur -26.1852 -5.0936 16.8762
rtibia 49.5128
rfoot -27.8239 -8.89099
rtoes -12.5509
lfemur -27.4109 0.901689 -16.6144
ltibia 49.7995
lfoot -25.2912 10.0609
ltoes -12.7074
230
root -0.108072 14.9398 -1.85579 7.8072 -0.37436 -0.877116
lowerback 2.7967 -0.696366 0.422527
upperback -5.85478 -0.939918 -0.448271
thorax -7.70129 -0.504461 -0.617623
lowerneck -12.5471 4.26961 10.6325
upperneck 31.8208 4.66098 -3.79914
head 13.1188 2.85098 -2.62594
rclavicle -1.19271e-014 9.14409e-015
rhumerus 31.548 10.7011 -61.9166
rradius 65.6644
rwrist 0.199876
rhand 30.6616 -35.3384
rfingers 7.12502
rthumb 54.3007 -53.971
lclavicle -1.19271e-014 9.14409e-015
lhumerus 27.5729 -9.90308 56.673
lradius 79.844
lwrist -9.03804
lhand 36.0008 25.8683
lfingers 7.12502
lthumb 59.0056 40.6518
rfemur -26.1787 -5.10418 16.8404
rtibia 49.5016
rfoot -27.8301 -8.8736
rtoes -12.551
lfemur -27.3994 0.953413 -16.6531
ltibia 49.7818
lfoot -25.2869 10.0262
ltoes -12.6759
231
root -0.108594 14.9408 -1.85441 7.79243 -0.367893 -0.880578
lowerback 2.8104 -0.692524 0.445438
upperback -5.87303 -0.933945 -0.458458
thorax -7.72953 -0.503335 -0.641431
lowerneck -12.4438 4.26306 10.6176
upperneck 31.637 4.6372 -3.71768
head 13.0145 2.84657 -2.59369
rclavicle 5.92627e-015 1.59028e-015
rhumerus 31.5043 10.7188 -61.9196
rradius 65.6872
rwrist 0.134359
rhand 30.7094 -35.3561
rfingers 7.12502
rthumb 54.3435 -53.9592
lclavicle 5.92627e-015 1.59028e-015
lhumerus 27.5509 -9.92342 56.6817
lradius 79.8555
lwrist -9.046
lhand 35.9843 25.8756
lfingers 7.12502
lthumb 58.9913 40.6729
rfemur -26.1439 -5.1305 16.8463
rtibia 49.4849
rfoot -27.8322 -8.86474
rtoes -12.5888
lfemur -27.3666 0.989809 -16.6477
ltibia 49.767
lfoot -25.2936 9.96542
ltoes -12.7066
232
root -0.109652 14.9416 -1.85433 7.79035 -0.36859 -0.888097
lowerback 2.82019 -0.67878 0.467534
upperback -5.87755 -0.915283 -0.477929
thorax -7.74059 -0.496162 -0.675859
lowerneck -12.423 4.22797 10.6304
upperneck 31.4679 4.56128 -3.65757
head 12.9312 2.81892 -2.5819
rclavicle 1.12935e-014 -1.98785e-015
rhumerus 31.4761 10.6779 -61.9476
rradius 65.7076
rwrist 0.0806259
rhand 30.7644 -35.3225
rfingers 7.12502
rthumb 54.3928 -53.8914
lclavicle 1.12935e-014 -1.98785e-015
lhumerus 27.6026 -9.94735 56.6845
lradius 79.8407
lwrist -9.06523
lhand 36.0163 25.8723
lfingers 7.12502
lthumb 59.019 40.6428
rfemur -26.1393 -5.12946 16.8598
rtibia 49.4733
rfoot -27.8205 -8.84878
rtoes -12.5071
lfemur -27.3583 1.05613 -16.6344
ltibia 49.7491
lfoot -25.2866 9.88685
ltoes -12.6762
233
root -0.109802 14.9418 -1.85357 7.78848 -0.38382 -0.878333
lowerback 2.81701 -0.68209 0.459389
upperback -5.86547 -0.920437 -0.480575
thorax -7.72568 -0.498244 -0.673683
lowerneck -12.4444 4.22322 10.64
upperneck 31.3155 4.53208 -3.61621
head 12.8689 2.80881 -2.56942
rclavicle 6.33626e-016 -1.59028e-015
rhumerus 31.5324 10.7032 -61.9491
rradius 65.7151
rwrist 0.0166545
rhand 30.8236 -35.3794
rfingers 7.12502
rthumb 54.4459 -53.9114
lclavicle 6.33626e-016 -1.59028e-015
lhumerus 27.6152 -9.90304 56.6629
lradius 79.8404
lwrist -9.04192
lhand 36.0007 25.8839
lfingers 7.12502
lthumb 59.0055 40.6675
rfemur -26.1338 -5.13167 16.8488
rtibia 49.4671
rfoot -27.8262 -8.84634
rtoes -12.5139
lfemur -27.3427 1.1004 -16.6477
ltibia 49.7321
lfoot -25.2832 9.85343
ltoes -12.6972
234
root -0.110152 14.9433 -1.85346 7.78546 -0.368148 -0.838267
lowerback 2.84468 -0.681567 0.431175
upperback -5.88531 -0.922792 -0.497413
thorax -7.76313 -0.498417 -0.674887
lowerneck -12.4348 4.20518 10.5368
upperneck 31.198 4.48006 -3.45668
head 12.8062 2.79154 -2.49593
rclavicle 8.05078e-015 -5.96354e-015
rhumerus 31.5034 10.7263 -61.9403
rradius 65.7315
rwrist -0.0349884
rhand 30.7963 -35.3927
rfingers 7.12502
rthumb 54.4214 -53.9418
lclavicle 8.05078e-015 -5.96354e-015
lhumerus 27.6188 -9.91545 56.6933
lradius 79.8278
lwrist -9.05266
lhand 35.9944 25.8719
lfingers 7.12502
lthumb 59 40.6608
rfemur -26.1211 -5.16109 16.8069
rtibia 49.4598
rfoot -27.8196 -8.84141
rtoes -12.5306
lfemur -27.3372 1.12196 -16.6917
ltibia 49.7169
lfoot -25.2634 9.81286
ltoes -12.7128
235
root -0.110177 14.9437 -1.85313 7.79466 -0.369278 -0.815391
lowerback 2.82279 -0.686596 0.420352
upperback -5.87373 -0.930953 -0.507448
thorax -7.73796 -0.502067 -0.678884
lowerneck -12.3791 4.1556 10.5886
upperneck 30.9884 4.40131 -3.47375
head 12.7025 2.75643 -2.52166
rclavicle -1.27222e-014 9.14409e-015
rhumerus 31.5613 10.7376 -61.9421
rradius 65.7391
rwrist -0.0613232
rhand 30.8069 -35.3877
rfingers 7.12502
rthumb 54.4309 -53.9302
lclavicle -1.27222e-014 9.14409e-015
lhumerus 27.645 -9.87232 56.6869
lradius 79.8268
lwrist -9.04206
lhand 36.0145 25.8276
lfingers 7.12502
lthumb 59.0174 40.5997
rfemur -26.1304 -5.17353 16.7823
rtibia 49.457
rfoot -27.8179 -8.83294
rtoes -12.5282
lfemur -27.3426 1.16813 -16.7205
ltibia 49.7041
lfoot -25.2529 9.76624
ltoes -12.6429
